<mxfile host="Electron" modified="2023-07-08T09:35:55.007Z" agent="Mozilla/5.0 (Windows NT 10.0; Win64; x64) AppleWebKit/537.36 (KHTML, like Gecko) draw.io/21.6.1 Chrome/112.0.5615.204 Electron/24.6.1 Safari/537.36" etag="UrfOrZaltjzdaWT9ceSI" version="21.6.1" type="device">
  <diagram name="第 1 页" id="CMAYWTjmFaaS8WL5qrCM">
    <mxGraphModel dx="2206" dy="1286" grid="1" gridSize="10" guides="1" tooltips="1" connect="1" arrows="1" fold="1" page="1" pageScale="1" pageWidth="1169" pageHeight="827" math="0" shadow="0">
      <root>
        <mxCell id="0" />
        <mxCell id="1" parent="0" />
        <mxCell id="AylOcYwj1kEPRNVb7-dR-59" value="" style="group" vertex="1" connectable="0" parent="1">
          <mxGeometry x="55" y="140" width="1080" height="640" as="geometry" />
        </mxCell>
        <mxCell id="AylOcYwj1kEPRNVb7-dR-1" value="&lt;font style=&quot;font-size: 18px;&quot;&gt;Client&lt;/font&gt;" style="rounded=0;whiteSpace=wrap;html=1;" vertex="1" parent="AylOcYwj1kEPRNVb7-dR-59">
          <mxGeometry x="45" width="100" height="40" as="geometry" />
        </mxCell>
        <mxCell id="AylOcYwj1kEPRNVb7-dR-2" value="&lt;font style=&quot;font-size: 18px;&quot;&gt;API Server&lt;/font&gt;" style="rounded=0;whiteSpace=wrap;html=1;" vertex="1" parent="AylOcYwj1kEPRNVb7-dR-59">
          <mxGeometry x="265" width="160" height="40" as="geometry" />
        </mxCell>
        <mxCell id="AylOcYwj1kEPRNVb7-dR-3" value="&lt;font style=&quot;font-size: 18px;&quot;&gt;ResourceQuota Controller&lt;/font&gt;" style="rounded=0;whiteSpace=wrap;html=1;" vertex="1" parent="AylOcYwj1kEPRNVb7-dR-59">
          <mxGeometry x="545" width="240" height="40" as="geometry" />
        </mxCell>
        <mxCell id="AylOcYwj1kEPRNVb7-dR-5" value="&lt;font style=&quot;font-size: 18px;&quot;&gt;etcd&lt;/font&gt;" style="rounded=0;whiteSpace=wrap;html=1;" vertex="1" parent="AylOcYwj1kEPRNVb7-dR-59">
          <mxGeometry x="905" width="100" height="40" as="geometry" />
        </mxCell>
        <mxCell id="AylOcYwj1kEPRNVb7-dR-6" value="" style="endArrow=none;html=1;rounded=0;strokeWidth=2;" edge="1" parent="AylOcYwj1kEPRNVb7-dR-59">
          <mxGeometry width="50" height="50" relative="1" as="geometry">
            <mxPoint x="195" y="620" as="sourcePoint" />
            <mxPoint x="195" y="40" as="targetPoint" />
          </mxGeometry>
        </mxCell>
        <mxCell id="AylOcYwj1kEPRNVb7-dR-7" value="" style="endArrow=none;html=1;rounded=0;strokeWidth=2;" edge="1" parent="AylOcYwj1kEPRNVb7-dR-59">
          <mxGeometry width="50" height="50" relative="1" as="geometry">
            <mxPoint x="485" y="620" as="sourcePoint" />
            <mxPoint x="485" y="40" as="targetPoint" />
          </mxGeometry>
        </mxCell>
        <mxCell id="AylOcYwj1kEPRNVb7-dR-8" value="" style="endArrow=none;html=1;rounded=0;strokeWidth=2;" edge="1" parent="AylOcYwj1kEPRNVb7-dR-59">
          <mxGeometry width="50" height="50" relative="1" as="geometry">
            <mxPoint x="845" y="620" as="sourcePoint" />
            <mxPoint x="845" y="40" as="targetPoint" />
          </mxGeometry>
        </mxCell>
        <mxCell id="AylOcYwj1kEPRNVb7-dR-9" value="" style="ellipse;whiteSpace=wrap;html=1;strokeColor=none;fillColor=#000000;" vertex="1" parent="AylOcYwj1kEPRNVb7-dR-59">
          <mxGeometry x="85" y="140" width="20" height="20" as="geometry" />
        </mxCell>
        <mxCell id="AylOcYwj1kEPRNVb7-dR-10" value="&lt;font style=&quot;font-size: 16px;&quot;&gt;Resource Quota、Pod、Service、RC、Secret、Volume、PVC等&lt;/font&gt;" style="text;html=1;strokeColor=none;fillColor=none;align=center;verticalAlign=middle;whiteSpace=wrap;rounded=0;" vertex="1" parent="AylOcYwj1kEPRNVb7-dR-59">
          <mxGeometry y="70" width="190" height="30" as="geometry" />
        </mxCell>
        <mxCell id="AylOcYwj1kEPRNVb7-dR-13" value="&lt;font style=&quot;font-size: 13px;&quot;&gt;创建、修改、删除资源信息&lt;br&gt;并同步到etcd&lt;/font&gt;" style="rounded=0;whiteSpace=wrap;html=1;" vertex="1" parent="AylOcYwj1kEPRNVb7-dR-59">
          <mxGeometry x="260" y="125" width="170" height="50" as="geometry" />
        </mxCell>
        <mxCell id="AylOcYwj1kEPRNVb7-dR-15" value="" style="endArrow=classic;html=1;rounded=0;entryX=0;entryY=0.5;entryDx=0;entryDy=0;exitX=1;exitY=0.5;exitDx=0;exitDy=0;" edge="1" parent="AylOcYwj1kEPRNVb7-dR-59" source="AylOcYwj1kEPRNVb7-dR-9" target="AylOcYwj1kEPRNVb7-dR-13">
          <mxGeometry width="50" height="50" relative="1" as="geometry">
            <mxPoint x="165" y="220" as="sourcePoint" />
            <mxPoint x="215" y="170" as="targetPoint" />
          </mxGeometry>
        </mxCell>
        <mxCell id="AylOcYwj1kEPRNVb7-dR-17" value="保存结果" style="rounded=0;whiteSpace=wrap;html=1;" vertex="1" parent="AylOcYwj1kEPRNVb7-dR-59">
          <mxGeometry x="920" y="132.5" width="70" height="35" as="geometry" />
        </mxCell>
        <mxCell id="AylOcYwj1kEPRNVb7-dR-19" value="" style="endArrow=classic;html=1;rounded=0;exitX=1;exitY=0.5;exitDx=0;exitDy=0;entryX=0;entryY=0.5;entryDx=0;entryDy=0;" edge="1" parent="AylOcYwj1kEPRNVb7-dR-59" source="AylOcYwj1kEPRNVb7-dR-13" target="AylOcYwj1kEPRNVb7-dR-17">
          <mxGeometry width="50" height="50" relative="1" as="geometry">
            <mxPoint x="595" y="180" as="sourcePoint" />
            <mxPoint x="645" y="130" as="targetPoint" />
          </mxGeometry>
        </mxCell>
        <mxCell id="AylOcYwj1kEPRNVb7-dR-20" value="" style="endArrow=classic;html=1;rounded=0;exitX=1;exitY=0.5;exitDx=0;exitDy=0;" edge="1" parent="AylOcYwj1kEPRNVb7-dR-59" source="AylOcYwj1kEPRNVb7-dR-17">
          <mxGeometry width="50" height="50" relative="1" as="geometry">
            <mxPoint x="1015" y="170" as="sourcePoint" />
            <mxPoint x="1035" y="150" as="targetPoint" />
          </mxGeometry>
        </mxCell>
        <mxCell id="AylOcYwj1kEPRNVb7-dR-21" value="" style="ellipse;whiteSpace=wrap;html=1;strokeColor=none;fillColor=#000000;" vertex="1" parent="AylOcYwj1kEPRNVb7-dR-59">
          <mxGeometry x="1035" y="140" width="20" height="20" as="geometry" />
        </mxCell>
        <mxCell id="AylOcYwj1kEPRNVb7-dR-22" value="" style="ellipse;whiteSpace=wrap;html=1;strokeColor=none;fillColor=#000000;" vertex="1" parent="AylOcYwj1kEPRNVb7-dR-59">
          <mxGeometry x="530" y="210" width="20" height="20" as="geometry" />
        </mxCell>
        <mxCell id="AylOcYwj1kEPRNVb7-dR-23" value="&lt;font style=&quot;font-size: 13px;&quot;&gt;读取Resource&lt;br&gt;Quota资源&lt;/font&gt;" style="rounded=0;whiteSpace=wrap;html=1;" vertex="1" parent="AylOcYwj1kEPRNVb7-dR-59">
          <mxGeometry x="655" y="200" width="120" height="40" as="geometry" />
        </mxCell>
        <mxCell id="AylOcYwj1kEPRNVb7-dR-24" value="" style="edgeStyle=orthogonalEdgeStyle;rounded=0;orthogonalLoop=1;jettySize=auto;html=1;" edge="1" parent="AylOcYwj1kEPRNVb7-dR-59" source="AylOcYwj1kEPRNVb7-dR-22" target="AylOcYwj1kEPRNVb7-dR-23">
          <mxGeometry relative="1" as="geometry" />
        </mxCell>
        <mxCell id="AylOcYwj1kEPRNVb7-dR-25" value="&lt;font style=&quot;font-size: 13px;&quot;&gt;返回Resource&lt;br&gt;Quota信息&lt;/font&gt;" style="rounded=0;whiteSpace=wrap;html=1;" vertex="1" parent="AylOcYwj1kEPRNVb7-dR-59">
          <mxGeometry x="895" y="200" width="120" height="40" as="geometry" />
        </mxCell>
        <mxCell id="AylOcYwj1kEPRNVb7-dR-26" value="" style="endArrow=classic;html=1;rounded=0;exitX=1;exitY=0.5;exitDx=0;exitDy=0;entryX=0;entryY=0.5;entryDx=0;entryDy=0;" edge="1" parent="AylOcYwj1kEPRNVb7-dR-59" source="AylOcYwj1kEPRNVb7-dR-23" target="AylOcYwj1kEPRNVb7-dR-25">
          <mxGeometry width="50" height="50" relative="1" as="geometry">
            <mxPoint x="825" y="260" as="sourcePoint" />
            <mxPoint x="875" y="210" as="targetPoint" />
          </mxGeometry>
        </mxCell>
        <mxCell id="AylOcYwj1kEPRNVb7-dR-27" value="&lt;font style=&quot;font-size: 13px;&quot;&gt;读取各类资源信息&lt;br&gt;同时统计这些资源&lt;br&gt;并将结果写入etcd中&lt;br&gt;&lt;/font&gt;" style="rounded=0;whiteSpace=wrap;html=1;" vertex="1" parent="AylOcYwj1kEPRNVb7-dR-59">
          <mxGeometry x="645" y="280" width="140" height="50" as="geometry" />
        </mxCell>
        <mxCell id="AylOcYwj1kEPRNVb7-dR-28" value="&lt;span style=&quot;font-size: 13px;&quot;&gt;保存统计结果&lt;/span&gt;" style="rounded=0;whiteSpace=wrap;html=1;" vertex="1" parent="AylOcYwj1kEPRNVb7-dR-59">
          <mxGeometry x="895" y="285" width="120" height="40" as="geometry" />
        </mxCell>
        <mxCell id="AylOcYwj1kEPRNVb7-dR-29" value="" style="endArrow=classic;html=1;rounded=0;exitX=1;exitY=0.5;exitDx=0;exitDy=0;" edge="1" parent="AylOcYwj1kEPRNVb7-dR-59">
          <mxGeometry width="50" height="50" relative="1" as="geometry">
            <mxPoint x="1015" y="305" as="sourcePoint" />
            <mxPoint x="1060" y="305" as="targetPoint" />
          </mxGeometry>
        </mxCell>
        <mxCell id="AylOcYwj1kEPRNVb7-dR-30" value="" style="ellipse;whiteSpace=wrap;html=1;strokeColor=none;fillColor=#000000;" vertex="1" parent="AylOcYwj1kEPRNVb7-dR-59">
          <mxGeometry x="1060" y="295" width="20" height="20" as="geometry" />
        </mxCell>
        <mxCell id="AylOcYwj1kEPRNVb7-dR-31" value="" style="endArrow=classic;html=1;rounded=0;entryX=0;entryY=0.5;entryDx=0;entryDy=0;exitX=1;exitY=0.5;exitDx=0;exitDy=0;" edge="1" parent="AylOcYwj1kEPRNVb7-dR-59" source="AylOcYwj1kEPRNVb7-dR-27" target="AylOcYwj1kEPRNVb7-dR-28">
          <mxGeometry width="50" height="50" relative="1" as="geometry">
            <mxPoint x="825" y="340" as="sourcePoint" />
            <mxPoint x="875" y="290" as="targetPoint" />
          </mxGeometry>
        </mxCell>
        <mxCell id="AylOcYwj1kEPRNVb7-dR-32" value="" style="endArrow=classic;html=1;rounded=0;exitX=0.5;exitY=1;exitDx=0;exitDy=0;entryX=0.5;entryY=0;entryDx=0;entryDy=0;" edge="1" parent="AylOcYwj1kEPRNVb7-dR-59" source="AylOcYwj1kEPRNVb7-dR-25" target="AylOcYwj1kEPRNVb7-dR-27">
          <mxGeometry width="50" height="50" relative="1" as="geometry">
            <mxPoint x="815" y="300" as="sourcePoint" />
            <mxPoint x="865" y="250" as="targetPoint" />
            <Array as="points">
              <mxPoint x="955" y="260" />
              <mxPoint x="835" y="260" />
              <mxPoint x="775" y="260" />
              <mxPoint x="745" y="260" />
              <mxPoint x="715" y="260" />
            </Array>
          </mxGeometry>
        </mxCell>
        <mxCell id="AylOcYwj1kEPRNVb7-dR-33" value="定时调用" style="text;html=1;strokeColor=none;fillColor=none;align=center;verticalAlign=middle;whiteSpace=wrap;rounded=0;" vertex="1" parent="AylOcYwj1kEPRNVb7-dR-59">
          <mxGeometry x="575" y="190" width="60" height="30" as="geometry" />
        </mxCell>
        <mxCell id="AylOcYwj1kEPRNVb7-dR-34" value="" style="ellipse;whiteSpace=wrap;html=1;strokeColor=none;fillColor=#000000;" vertex="1" parent="AylOcYwj1kEPRNVb7-dR-59">
          <mxGeometry x="85" y="385" width="20" height="20" as="geometry" />
        </mxCell>
        <mxCell id="AylOcYwj1kEPRNVb7-dR-35" value="&lt;span style=&quot;font-size: 13px;&quot;&gt;Admission Controller&lt;/span&gt;" style="rounded=0;whiteSpace=wrap;html=1;" vertex="1" parent="AylOcYwj1kEPRNVb7-dR-59">
          <mxGeometry x="260" y="370" width="170" height="50" as="geometry" />
        </mxCell>
        <mxCell id="AylOcYwj1kEPRNVb7-dR-36" value="" style="endArrow=classic;html=1;rounded=0;entryX=0;entryY=0.5;entryDx=0;entryDy=0;exitX=1;exitY=0.5;exitDx=0;exitDy=0;" edge="1" parent="AylOcYwj1kEPRNVb7-dR-59" source="AylOcYwj1kEPRNVb7-dR-34" target="AylOcYwj1kEPRNVb7-dR-35">
          <mxGeometry width="50" height="50" relative="1" as="geometry">
            <mxPoint x="165" y="465" as="sourcePoint" />
            <mxPoint x="215" y="415" as="targetPoint" />
          </mxGeometry>
        </mxCell>
        <mxCell id="AylOcYwj1kEPRNVb7-dR-43" value="&lt;font style=&quot;font-size: 13px;&quot;&gt;读取统计结果&lt;/font&gt;" style="rounded=0;whiteSpace=wrap;html=1;" vertex="1" parent="AylOcYwj1kEPRNVb7-dR-59">
          <mxGeometry x="655" y="450" width="120" height="40" as="geometry" />
        </mxCell>
        <mxCell id="AylOcYwj1kEPRNVb7-dR-45" value="" style="endArrow=classic;html=1;rounded=0;exitX=1;exitY=0.5;exitDx=0;exitDy=0;entryX=0;entryY=0.5;entryDx=0;entryDy=0;" edge="1" parent="AylOcYwj1kEPRNVb7-dR-59" source="AylOcYwj1kEPRNVb7-dR-43">
          <mxGeometry width="50" height="50" relative="1" as="geometry">
            <mxPoint x="825" y="510" as="sourcePoint" />
            <mxPoint x="895" y="470" as="targetPoint" />
          </mxGeometry>
        </mxCell>
        <mxCell id="AylOcYwj1kEPRNVb7-dR-46" value="&lt;font style=&quot;font-size: 13px;&quot;&gt;判断请求是否合法&lt;br&gt;并返回结果&lt;br&gt;&lt;/font&gt;" style="rounded=0;whiteSpace=wrap;html=1;" vertex="1" parent="AylOcYwj1kEPRNVb7-dR-59">
          <mxGeometry x="645" y="530" width="140" height="50" as="geometry" />
        </mxCell>
        <mxCell id="AylOcYwj1kEPRNVb7-dR-47" value="&lt;span style=&quot;font-size: 13px;&quot;&gt;返回统计结果&lt;/span&gt;" style="rounded=0;whiteSpace=wrap;html=1;" vertex="1" parent="AylOcYwj1kEPRNVb7-dR-59">
          <mxGeometry x="895" y="450" width="120" height="40" as="geometry" />
        </mxCell>
        <mxCell id="AylOcYwj1kEPRNVb7-dR-48" value="" style="endArrow=classic;html=1;rounded=0;exitX=0.5;exitY=1;exitDx=0;exitDy=0;" edge="1" parent="AylOcYwj1kEPRNVb7-dR-59" source="AylOcYwj1kEPRNVb7-dR-46">
          <mxGeometry width="50" height="50" relative="1" as="geometry">
            <mxPoint x="682.5" y="630" as="sourcePoint" />
            <mxPoint x="715" y="620" as="targetPoint" />
          </mxGeometry>
        </mxCell>
        <mxCell id="AylOcYwj1kEPRNVb7-dR-49" value="" style="ellipse;whiteSpace=wrap;html=1;strokeColor=none;fillColor=#000000;" vertex="1" parent="AylOcYwj1kEPRNVb7-dR-59">
          <mxGeometry x="705" y="620" width="20" height="20" as="geometry" />
        </mxCell>
        <mxCell id="AylOcYwj1kEPRNVb7-dR-51" value="" style="endArrow=classic;html=1;rounded=0;exitX=0.5;exitY=1;exitDx=0;exitDy=0;entryX=0.5;entryY=0;entryDx=0;entryDy=0;" edge="1" parent="AylOcYwj1kEPRNVb7-dR-59" target="AylOcYwj1kEPRNVb7-dR-46">
          <mxGeometry width="50" height="50" relative="1" as="geometry">
            <mxPoint x="955" y="490" as="sourcePoint" />
            <mxPoint x="865" y="500" as="targetPoint" />
            <Array as="points">
              <mxPoint x="955" y="510" />
              <mxPoint x="835" y="510" />
              <mxPoint x="775" y="510" />
              <mxPoint x="745" y="510" />
              <mxPoint x="715" y="510" />
            </Array>
          </mxGeometry>
        </mxCell>
        <mxCell id="AylOcYwj1kEPRNVb7-dR-53" value="请求创建资源" style="text;html=1;strokeColor=none;fillColor=none;align=center;verticalAlign=middle;whiteSpace=wrap;rounded=0;" vertex="1" parent="AylOcYwj1kEPRNVb7-dR-59">
          <mxGeometry x="110" y="360" width="80" height="30" as="geometry" />
        </mxCell>
        <mxCell id="AylOcYwj1kEPRNVb7-dR-54" value="&lt;font style=&quot;font-size: 13px;&quot;&gt;读取Resource&lt;br&gt;Quota定义&lt;/font&gt;" style="rounded=0;whiteSpace=wrap;html=1;" vertex="1" parent="AylOcYwj1kEPRNVb7-dR-59">
          <mxGeometry x="655" y="375" width="120" height="40" as="geometry" />
        </mxCell>
        <mxCell id="AylOcYwj1kEPRNVb7-dR-55" value="" style="endArrow=classic;html=1;rounded=0;exitX=1;exitY=0.5;exitDx=0;exitDy=0;entryX=0;entryY=0.5;entryDx=0;entryDy=0;" edge="1" parent="AylOcYwj1kEPRNVb7-dR-59" source="AylOcYwj1kEPRNVb7-dR-35" target="AylOcYwj1kEPRNVb7-dR-54">
          <mxGeometry width="50" height="50" relative="1" as="geometry">
            <mxPoint x="465" y="420" as="sourcePoint" />
            <mxPoint x="515" y="370" as="targetPoint" />
          </mxGeometry>
        </mxCell>
        <mxCell id="AylOcYwj1kEPRNVb7-dR-56" value="" style="endArrow=classic;html=1;rounded=0;entryX=0;entryY=0.5;entryDx=0;entryDy=0;exitX=1;exitY=0.5;exitDx=0;exitDy=0;" edge="1" parent="AylOcYwj1kEPRNVb7-dR-59" source="AylOcYwj1kEPRNVb7-dR-54" target="AylOcYwj1kEPRNVb7-dR-57">
          <mxGeometry width="50" height="50" relative="1" as="geometry">
            <mxPoint x="815" y="420" as="sourcePoint" />
            <mxPoint x="865" y="370" as="targetPoint" />
          </mxGeometry>
        </mxCell>
        <mxCell id="AylOcYwj1kEPRNVb7-dR-57" value="&lt;font style=&quot;font-size: 13px;&quot;&gt;返回Resource&lt;br&gt;Quota信息&lt;/font&gt;" style="rounded=0;whiteSpace=wrap;html=1;" vertex="1" parent="AylOcYwj1kEPRNVb7-dR-59">
          <mxGeometry x="895" y="375" width="120" height="40" as="geometry" />
        </mxCell>
        <mxCell id="AylOcYwj1kEPRNVb7-dR-58" value="" style="endArrow=classic;html=1;rounded=0;entryX=0.5;entryY=0;entryDx=0;entryDy=0;exitX=0.5;exitY=1;exitDx=0;exitDy=0;" edge="1" parent="AylOcYwj1kEPRNVb7-dR-59" source="AylOcYwj1kEPRNVb7-dR-57" target="AylOcYwj1kEPRNVb7-dR-43">
          <mxGeometry width="50" height="50" relative="1" as="geometry">
            <mxPoint x="955" y="420" as="sourcePoint" />
            <mxPoint x="715" y="450" as="targetPoint" />
            <Array as="points">
              <mxPoint x="955" y="430" />
              <mxPoint x="835" y="430" />
              <mxPoint x="775" y="430" />
              <mxPoint x="745" y="430" />
              <mxPoint x="715" y="430" />
            </Array>
          </mxGeometry>
        </mxCell>
      </root>
    </mxGraphModel>
  </diagram>
</mxfile>
